<?xml version="1.0" encoding="UTF-8"?>
<svg xmlns="http://www.w3.org/2000/svg" xmlns:xlink="http://www.w3.org/1999/xlink" width="35px" height="12px" viewBox="0 0 34 12" version="1.1">
<g id="surface1">
<path style=" stroke:none;fill-rule:nonzero;fill:rgb(59.215686%,81.176471%,14.901961%);fill-opacity:1;" d="M 10.253906 7.988281 C 10.253906 9.316406 9.191406 10.394531 7.882812 10.394531 C 6.574219 10.394531 5.511719 9.316406 5.511719 7.988281 C 5.511719 6.660156 6.574219 5.582031 7.882812 5.582031 C 9.191406 5.582031 10.253906 6.660156 10.253906 7.988281 Z M 10.253906 7.988281 "/>
<path style=" stroke:none;fill-rule:nonzero;fill:rgb(63.137255%,41.176471%,96.862745%);fill-opacity:1;" d="M 4.53125 7.988281 C 4.53125 8.605469 4.035156 9.105469 3.425781 9.105469 C 2.816406 9.105469 2.324219 8.605469 2.324219 7.988281 C 2.324219 7.367188 2.816406 6.867188 3.425781 6.867188 C 4.035156 6.867188 4.53125 7.367188 4.53125 7.988281 Z M 4.53125 7.988281 "/>
<path style=" stroke:none;fill-rule:nonzero;fill:rgb(100%,38.039216%,38.823529%);fill-opacity:1;" d="M 9.40625 3.464844 C 9.40625 4.320312 8.726562 5.015625 7.882812 5.015625 C 7.039062 5.015625 6.355469 4.320312 6.355469 3.464844 C 6.355469 2.609375 7.039062 1.917969 7.882812 1.917969 C 8.726562 1.917969 9.40625 2.609375 9.40625 3.464844 Z M 9.40625 3.464844 "/>
<path style=" stroke:none;fill-rule:nonzero;fill:rgb(0%,66.666667%,100%);fill-opacity:1;" d="M 5.375 3.464844 C 5.375 4.558594 4.503906 5.441406 3.425781 5.441406 C 2.351562 5.441406 1.476562 4.558594 1.476562 3.464844 C 1.476562 2.375 2.351562 1.488281 3.425781 1.488281 C 4.503906 1.488281 5.375 2.375 5.375 3.464844 Z M 5.375 3.464844 "/>
<path style=" stroke:none;fill-rule:nonzero;fill:rgb(0%,0%,0%);fill-opacity:1;" d="M 16.414062 9.09375 L 17.644531 9.09375 L 15.367188 2.796875 L 14.476562 2.796875 L 12.195312 9.09375 L 13.425781 9.09375 L 13.859375 7.890625 L 15.980469 7.890625 L 16.414062 9.09375 L 14.203125 6.945312 L 14.921875 4.964844 L 15.636719 6.945312 L 14.203125 6.945312 Z M 20.695312 4.796875 L 19.5625 7.921875 L 18.433594 4.796875 L 17.277344 4.796875 L 18.832031 9.09375 L 20.296875 9.09375 L 21.851562 4.796875 L 20.695312 4.796875 M 22.335938 4.796875 L 23.492188 4.796875 L 23.492188 9.09375 L 22.335938 9.09375 Z M 22.335938 4.796875 "/>
<path style=" stroke:none;fill-rule:nonzero;fill:rgb(0%,0%,0%);fill-opacity:1;" d="M 23.664062 3.550781 C 23.664062 3.96875 23.328125 4.308594 22.917969 4.308594 C 22.507812 4.308594 22.175781 3.96875 22.175781 3.550781 C 22.175781 3.132812 22.507812 2.796875 22.917969 2.796875 C 23.328125 2.796875 23.664062 3.132812 23.664062 3.550781 Z M 23.664062 3.550781 "/>
<path style=" stroke:none;fill-rule:nonzero;fill:rgb(0%,0%,0%);fill-opacity:1;" d="M 27.574219 5.742188 L 27.574219 4.796875 L 26.191406 4.796875 L 26.191406 3.609375 L 25.035156 3.609375 L 25.035156 4.796875 L 24.121094 4.796875 L 24.121094 5.742188 L 25.035156 5.742188 L 25.035156 7.59375 C 25.035156 8.546875 25.503906 9.183594 26.703125 9.183594 C 27.167969 9.183594 27.574219 9.011719 27.574219 9.011719 L 27.433594 8.082031 C 27.433594 8.082031 27.207031 8.152344 26.925781 8.152344 C 26.585938 8.152344 26.191406 8 26.191406 7.519531 L 26.191406 5.742188 L 27.574219 5.742188 M 30.226562 8.113281 C 29.582031 8.113281 29.058594 7.59375 29.058594 6.953125 C 29.058594 6.3125 29.582031 5.796875 30.226562 5.796875 C 30.871094 5.796875 31.394531 6.3125 31.394531 6.953125 C 31.394531 7.59375 30.871094 8.113281 30.226562 8.113281 M 30.226562 4.6875 C 28.972656 4.6875 27.957031 5.695312 27.957031 6.9375 C 27.957031 8.183594 28.972656 9.191406 30.226562 9.191406 C 31.480469 9.191406 32.496094 8.183594 32.496094 6.9375 C 32.496094 5.695312 31.480469 4.6875 30.226562 4.6875 "/>
</g>
</svg>
