<svg width="56" height="54" viewBox="0 0 56 54" fill="none" xmlns="http://www.w3.org/2000/svg">
<path d="M6.66675 29.8571V11.2857M6.66675 11.2857L30.7144 22M6.66675 11.2857L18.6906 6.7619M54.5239 11.7619L30.7144 2L18.6906 6.7619M54.5239 11.7619V42L30.7144 52M54.5239 11.7619L42.6191 16.881M30.7144 52L15.7144 45.3333M30.7144 52V22M30.7144 22L42.6191 16.881M18.6906 6.7619L42.6191 16.881M42.6191 16.881V22.4762" stroke="black" stroke-width="2"/>
<path d="M15.1905 39.0952C15.1905 43.0138 12.0138 46.1905 8.09524 46.1905C4.17665 46.1905 1 43.0138 1 39.0952C1 35.1766 4.17665 32 8.09524 32C12.0138 32 15.1905 35.1766 15.1905 39.0952Z" stroke="black" stroke-width="2"/>
<path d="M5 37.6129L7.76923 41L11 36" stroke="black" stroke-width="2"/>
</svg>
