<svg width="25" height="26" viewBox="0 0 25 26" fill="none" xmlns="http://www.w3.org/2000/svg">
<path d="M1.12346 6.79249C0.361025 10.6012 3.23504 15.135 6.8445 18.9013C10.454 22.6678 14.7988 25.6668 18.4489 24.8712C21.4507 24.2168 22.9831 22.5483 23.8456 21.1266C24.1432 20.636 23.9929 19.9993 23.5469 19.6521L19.3232 16.3646C18.8678 16.0101 18.2319 16.0581 17.8303 16.4774L15.5883 18.8167C15.5883 18.8167 13.4092 18.0775 10.5215 15.0644C7.63401 12.0514 6.92565 9.7774 6.92565 9.7774L9.16755 7.43803C9.56932 7.01879 9.61534 6.3554 9.27561 5.88015L6.12506 1.47276C5.79238 1.00736 5.18213 0.850622 4.71199 1.16115C3.34947 2.06109 1.7505 3.66019 1.12346 6.79249Z" stroke="white" stroke-linecap="round" stroke-linejoin="round"/>
</svg>
