<?xml version="1.0" encoding="UTF-8"?>
<svg xmlns="http://www.w3.org/2000/svg" xmlns:xlink="http://www.w3.org/1999/xlink" width="101px" height="55px" viewBox="0 0 100 35" version="1.1">
<g id="surface1">
<path style=" stroke:none;fill-rule:nonzero;fill:rgb(59.215686%,81.176471%,14.901961%);fill-opacity:1;" d="M 30.15625 23.296875 C 30.15625 27.171875 27.035156 30.3125 23.183594 30.3125 C 19.332031 30.3125 16.210938 27.171875 16.210938 23.296875 C 16.210938 19.421875 19.332031 16.28125 23.183594 16.28125 C 27.035156 16.28125 30.15625 19.421875 30.15625 23.296875 Z M 30.15625 23.296875 "/>
<path style=" stroke:none;fill-rule:nonzero;fill:rgb(63.137255%,41.176471%,96.862745%);fill-opacity:1;" d="M 13.324219 23.296875 C 13.324219 25.101562 11.871094 26.5625 10.078125 26.5625 C 8.285156 26.5625 6.832031 25.101562 6.832031 23.296875 C 6.832031 21.492188 8.285156 20.03125 10.078125 20.03125 C 11.871094 20.03125 13.324219 21.492188 13.324219 23.296875 Z M 13.324219 23.296875 "/>
<path style=" stroke:none;fill-rule:nonzero;fill:rgb(100%,38.039216%,38.823529%);fill-opacity:1;" d="M 27.671875 10.109375 C 27.671875 12.601562 25.660156 14.625 23.183594 14.625 C 20.703125 14.625 18.695312 12.601562 18.695312 10.109375 C 18.695312 7.617188 20.703125 5.59375 23.183594 5.59375 C 25.660156 5.59375 27.671875 7.617188 27.671875 10.109375 Z M 27.671875 10.109375 "/>
<path style=" stroke:none;fill-rule:nonzero;fill:rgb(0%,66.666667%,100%);fill-opacity:1;" d="M 15.808594 10.109375 C 15.808594 13.292969 13.242188 15.875 10.078125 15.875 C 6.914062 15.875 4.347656 13.292969 4.347656 10.109375 C 4.347656 6.925781 6.914062 4.34375 10.078125 4.34375 C 13.242188 4.34375 15.808594 6.925781 15.808594 10.109375 Z M 15.808594 10.109375 "/>
<path style=" stroke:none;fill-rule:nonzero;fill:rgb(0%,0%,0%);fill-opacity:1;" d="M 48.28125 26.523438 L 51.902344 26.523438 L 45.199219 8.160156 L 42.574219 8.160156 L 35.867188 26.523438 L 39.488281 26.523438 L 40.769531 23.019531 L 47 23.019531 L 48.28125 26.523438 L 41.777344 20.253906 L 43.886719 14.480469 L 45.992188 20.253906 L 41.777344 20.253906 Z M 60.871094 13.984375 L 57.542969 23.109375 L 54.210938 13.984375 L 50.8125 13.984375 L 55.390625 26.523438 L 59.695312 26.523438 L 64.273438 13.984375 L 60.871094 13.984375 M 65.695312 13.984375 L 69.09375 13.984375 L 69.09375 26.523438 L 65.695312 26.523438 Z M 65.695312 13.984375 "/>
<path style=" stroke:none;fill-rule:nonzero;fill:rgb(0%,0%,0%);fill-opacity:1;" d="M 69.597656 10.359375 C 69.597656 11.574219 68.617188 12.5625 67.40625 12.5625 C 66.199219 12.5625 65.21875 11.574219 65.21875 10.359375 C 65.21875 9.144531 66.199219 8.15625 67.40625 8.15625 C 68.617188 8.15625 69.597656 9.144531 69.597656 10.359375 Z M 69.597656 10.359375 "/>
<path style=" stroke:none;fill-rule:nonzero;fill:rgb(0%,0%,0%);fill-opacity:1;" d="M 81.101562 16.75 L 81.101562 13.984375 L 77.027344 13.984375 L 77.027344 10.527344 L 73.628906 10.527344 L 73.628906 13.984375 L 70.941406 13.984375 L 70.941406 16.75 L 73.628906 16.75 L 73.628906 22.144531 C 73.628906 24.925781 75.011719 26.785156 78.542969 26.785156 C 79.90625 26.785156 81.101562 26.28125 81.101562 26.28125 L 80.6875 23.574219 C 80.6875 23.574219 80.019531 23.773438 79.195312 23.773438 C 78.1875 23.773438 77.027344 23.335938 77.027344 21.933594 L 77.027344 16.75 L 81.101562 16.75 M 88.902344 23.660156 C 87.003906 23.660156 85.46875 22.144531 85.46875 20.28125 C 85.46875 18.417969 87.003906 16.902344 88.898438 16.902344 C 90.796875 16.902344 92.332031 18.417969 92.332031 20.28125 C 92.332031 22.144531 90.796875 23.660156 88.902344 23.660156 M 88.902344 13.667969 C 85.214844 13.667969 82.226562 16.609375 82.226562 20.234375 C 82.226562 23.863281 85.214844 26.804688 88.898438 26.804688 C 92.585938 26.804688 95.574219 23.863281 95.574219 20.234375 C 95.574219 16.609375 92.585938 13.667969 88.898438 13.667969 "/>
</g>
</svg>
