<svg width="229" height="32" viewBox="0 0 229 32" fill="none" xmlns="http://www.w3.org/2000/svg">
<mask id="mask0_177_11" style="mask-type:luminance" maskUnits="userSpaceOnUse" x="0" y="0" width="229" height="32">
<path d="M228.684 0H0V31.906H228.684V0Z" fill="white"/>
</mask>
<g mask="url(#mask0_177_11)">
<path d="M18.9401 0.680664V31.4016H13.8249V5.09477H5.1251V31.4016H0V0.680664H18.9401Z" fill="#A7A5A5"/>
<path d="M25.3989 30.187C23.8624 28.7777 22.7479 26.9691 22.1796 24.9631C21.3472 22.154 20.9607 19.2317 21.0342 16.3028C20.9632 13.2994 21.3494 10.3026 22.1796 7.41532C22.7435 5.35065 23.856 3.47722 25.3989 1.99398C26.7513 0.83683 28.4726 0.200928 30.2525 0.200928C32.0323 0.200928 33.7536 0.83683 35.106 1.99398C36.6471 3.45958 37.7542 5.32179 38.3055 7.37582C39.1302 10.2642 39.5164 13.2602 39.451 16.2633C39.5253 19.2084 39.1388 22.1472 38.3055 24.9729C37.7529 26.9783 36.6436 28.786 35.106 30.187C33.7312 31.304 32.0139 31.9137 30.2426 31.9137C28.4713 31.9137 26.7539 31.304 25.3792 30.187H25.3989ZM26.6629 22.4252C26.8644 23.7417 27.3569 24.9967 28.1047 26.0987C28.3395 26.4562 28.6568 26.7521 29.0296 26.9617C29.4024 27.1713 29.82 27.2885 30.2475 27.3035C31.5115 27.3035 32.5089 26.3851 33.21 24.5286C34.0762 21.8762 34.4641 19.0909 34.3555 16.3028C34.3864 14.1657 34.2212 12.0304 33.8617 9.92358C33.6434 8.55323 33.1387 7.24437 32.3805 6.08221C32.1542 5.70624 31.8381 5.3922 31.4607 5.16819C31.0834 4.94417 30.6563 4.81714 30.2179 4.79847C29.7873 4.82254 29.3693 4.95225 29.0007 5.17613C28.6322 5.40002 28.3245 5.71121 28.1047 6.08221C27.3565 7.25647 26.8652 8.57561 26.6629 9.95322C26.2872 12.0548 26.1152 14.1878 26.1494 16.3226C26.1161 18.3688 26.2882 20.4133 26.6629 22.4252Z" fill="#A7A5A5"/>
<path d="M53.5027 0.680664V12.4615H50.797C49.8102 12.5029 48.827 12.3171 47.9234 11.9183C47.209 11.5426 46.6626 10.9114 46.3927 10.1507C46.0292 9.09745 45.8651 7.98568 45.9089 6.87226V0.680664H40.7936V6.87226C40.6398 9.5515 41.4371 12.199 43.0452 14.3476C44.5461 16.158 46.7878 17.0632 49.77 17.0632H53.5027V31.4016H58.6279V0.680664H53.5027Z" fill="#A7A5A5"/>
<path d="M77.9026 5.09477H71.8789V31.4016H66.7834V5.09477H60.7695V0.680664H77.9026V5.09477Z" fill="#A7A5A5"/>
<path d="M85.1848 0.680934H89.283C90.967 0.61465 92.6339 1.04752 94.0728 1.92518C95.3392 2.77674 96.3222 3.98711 96.8969 5.40116C97.6048 7.15308 98.0506 8.99978 98.2197 10.8817L100.61 31.4019H95.4947L93.8252 17.0635H85.1848V31.4019H80.0698V0.680934H85.1848ZM85.1848 12.6494H93.3222L93.0848 10.8817C92.9951 9.74785 92.7628 8.62984 92.3939 7.5539C92.1326 6.83103 91.6262 6.22286 90.9618 5.83566C90.1002 5.42679 89.1497 5.24008 88.1967 5.29254H85.1848V12.6494Z" fill="#A7A5A5"/>
<path d="M121.818 0.681074C123.525 0.640152 125.209 1.08168 126.677 1.95494C128.116 2.87079 129.236 4.209 129.886 5.78642C130.706 7.79309 131.096 9.94941 131.031 12.1163C131.079 14.1727 130.713 16.2177 129.955 18.1301C129.39 19.5883 128.486 20.8914 127.318 21.9319C126.509 22.6891 125.462 23.1397 124.356 23.2058C123.786 23.2424 123.215 23.1525 122.685 22.9425C122.153 22.7324 121.675 22.4076 121.285 21.9912V31.402H116.17V0.681074H121.818ZM121.591 16.6291C121.72 17.1773 121.981 17.6857 122.352 18.1104C122.473 18.2566 122.623 18.3759 122.793 18.4609C122.963 18.5459 123.149 18.5947 123.339 18.6041C123.785 18.5791 124.205 18.3849 124.514 18.061C124.985 17.5596 125.325 16.9487 125.501 16.2835C125.786 15.2618 125.916 14.2033 125.886 13.1432C125.886 10.273 125.538 8.24525 124.84 7.06029C124.545 6.51393 124.105 6.05968 123.568 5.74774C123.031 5.4358 122.419 5.27831 121.798 5.29268H121.285V14.1801C121.276 15.0066 121.379 15.8304 121.591 16.6291Z" fill="#A7A5A5"/>
<path d="M136.729 30.1878C135.189 28.7811 134.074 26.9716 133.51 24.9639C132.674 22.1554 132.283 19.233 132.354 16.3036C132.285 13.2996 132.674 10.3026 133.51 7.41611C134.068 5.34928 135.182 3.47457 136.729 1.99477C138.06 0.811536 139.786 0.170279 141.568 0.197529C143.356 0.167794 145.091 0.80496 146.436 1.98489C147.982 3.46 149.093 5.33219 149.645 7.39636C150.466 10.2854 150.849 13.2812 150.781 16.2838C150.852 19.2145 150.472 22.1386 149.655 24.954C149.099 26.9576 147.99 28.7643 146.456 30.168C145.073 31.323 143.319 31.9371 141.518 31.8961C139.769 31.914 138.071 31.3084 136.729 30.1878ZM137.983 22.426C138.194 23.74 138.685 24.9931 139.425 26.0995C139.66 26.4564 139.977 26.7519 140.35 26.9614C140.723 27.171 141.141 27.2885 141.568 27.3043C142.842 27.3043 143.829 26.3859 144.53 24.5294C145.38 21.874 145.75 19.0888 145.626 16.3036C145.659 14.166 145.491 12.0302 145.123 9.92431C144.93 8.56258 144.46 7.25492 143.74 6.083C143.528 5.69566 143.217 5.37245 142.837 5.14728C142.456 4.92212 142.024 4.8033 141.582 4.8033C141.141 4.8033 140.708 4.92212 140.328 5.14728C139.948 5.37245 139.636 5.69566 139.425 6.083C138.684 7.26087 138.193 8.57847 137.983 9.95394C137.616 12.0567 137.447 14.1891 137.479 16.3233C137.448 18.3691 137.617 20.413 137.983 22.426Z" fill="#A7A5A5"/>
<path d="M154.327 7.63294C155.586 5.3341 157.553 3.50232 159.935 2.40909C162.716 1.19403 165.729 0.604112 168.764 0.680969V5.29257C165.129 5.29257 162.344 6.21424 160.409 8.05752C158.434 9.89431 157.506 12.6494 157.506 16.3031C157.506 19.9569 158.493 22.4552 160.399 24.2031C162.305 25.951 165.109 26.82 168.764 26.82V31.4316C163.539 31.4316 159.49 30.1676 156.647 27.6396C153.803 25.1116 152.38 21.3493 152.38 16.3327C152.273 13.314 152.942 10.3181 154.327 7.63294Z" fill="#A7A5A5"/>
<path d="M171.558 7.63294C172.817 5.3341 174.784 3.50232 177.166 2.40909C179.947 1.19403 182.961 0.604112 185.995 0.680969V5.29257C182.36 5.29257 179.575 6.21424 177.64 8.05752C175.665 9.89431 174.737 12.6494 174.737 16.3031C174.737 19.9569 175.724 22.4552 177.63 24.2031C179.536 25.951 182.341 26.82 185.995 26.82V31.4316C180.771 31.4316 176.722 30.1676 173.878 27.6396C171.034 25.1116 169.641 21.3196 169.641 16.3031C169.529 13.2969 170.189 10.3121 171.558 7.63294Z" fill="#A7A5A5"/>
<path d="M193.519 0.680798V11.6518L202.229 4.31478L207.324 0.0290527V31.4314H202.229V10.4965L193.528 17.8336V31.4017H188.404V0.680798H193.519Z" fill="#A7A5A5"/>
<path d="M214.86 0.680798V11.6518L223.57 4.31478L228.665 0.0290527V31.4314H223.55V10.4965L214.84 17.8336V31.4017H209.725V0.680798H214.86Z" fill="#A7A5A5"/>
</g>
</svg>
