<svg width="194" height="31" viewBox="0 0 194 31" fill="none" xmlns="http://www.w3.org/2000/svg">
<g clip-path="url(#clip0_177_31)">
<path d="M134.755 5.57387C134.755 6.97363 133.7 8.12568 132.269 8.12568H129.781C128.348 8.1227 127.297 6.97066 127.297 5.57088V3.55922C127.297 1.99531 128.783 0.843262 130.342 0.843262H132.448C134.007 0.843262 134.755 1.99531 134.755 3.55922V5.57387Z" fill="#A7A5A5"/>
<path fill-rule="evenodd" clip-rule="evenodd" d="M14.2833 6.38125V14.5679H14.1978C13.5651 11.5237 11.9238 9.63145 8.25626 9.63145H7.6236C3.20107 9.63145 0.587891 12.6757 0.587891 18.2719V21.5638C0.587891 27.2405 2.94739 30.3683 7.36992 30.3683H8.04844C11.5449 30.3683 13.3573 28.2702 14.2008 25.596H14.2833V27.8187C14.2833 29.2184 15.3378 30.3705 16.7682 30.3705H19.2561C20.6895 30.3675 21.7408 29.2154 21.7408 27.8157V6.38125C21.7408 4.81732 20.6467 3.66528 19.088 3.66528H16.9822C15.4234 3.66528 14.2833 4.81732 14.2833 6.38125ZM7.62822 20.0059C7.62822 22.4741 8.68266 23.5039 11.2103 23.5039C13.7379 23.5039 14.7923 22.4741 14.7923 20.0059C14.7923 17.5376 13.7379 16.508 11.2103 16.508C8.68266 16.508 7.62822 17.5376 7.62822 20.0059Z" fill="#A7A5A5"/>
<path fill-rule="evenodd" clip-rule="evenodd" d="M23.363 18.7275V21.2793C23.363 26.8336 26.9848 30.3703 33.0944 30.3703H34.8641C40.9738 30.3703 44.5955 26.8336 44.5955 21.2793V18.7275C44.5955 13.1732 40.9738 9.63647 34.8641 9.63647H33.0944C26.9879 9.63647 23.363 13.1732 23.363 18.7275ZM33.9808 23.4998C31.4532 23.4998 30.3988 22.4701 30.3988 20.002C30.3988 17.5337 31.4532 16.504 33.9808 16.504C36.5084 16.504 37.5628 17.5337 37.5628 20.002C37.5628 22.4701 36.5084 23.4998 33.9808 23.4998Z" fill="#A7A5A5"/>
<path d="M134.755 27.8148V12.4325C134.755 10.8663 133.614 9.71265 132.055 9.71265H129.949C128.392 9.71265 127.297 10.8663 127.297 12.4325V27.8118C127.297 29.2136 128.348 30.3672 129.781 30.3702H132.269C133.7 30.3702 134.755 29.2166 134.755 27.8148Z" fill="#A7A5A5"/>
<path d="M104.534 12.8125C104.028 11.3766 104.963 9.63335 106.679 9.63331L108.345 9.63367C109.668 9.63373 110.956 9.63377 111.635 11.5391L114.564 19.856C115.055 21.2524 115.212 22.3304 115.194 23.1617H115.262C115.244 22.3304 115.4 21.2524 115.892 19.856L118.821 11.5391C119.5 9.63378 120.788 9.63373 122.111 9.63367L123.777 9.6333C125.492 9.63334 126.428 11.3766 125.922 12.8125L125.646 13.6669L121.065 26.6737C120.245 29.0826 118.49 30.3702 115.89 30.3702H114.568C111.968 30.3702 110.214 29.0826 109.393 26.6737L104.534 12.8125Z" fill="#A7A5A5"/>
<path fill-rule="evenodd" clip-rule="evenodd" d="M95.6232 14.57H95.7088V12.2505C95.7088 10.8508 96.7632 9.63981 98.1935 9.63981H100.681C102.115 9.6428 103.166 10.8538 103.166 12.2535V27.735C103.166 29.1348 102.115 30.2869 100.681 30.2899H98.1935C96.7632 30.2899 95.7088 29.1378 95.7088 27.738V25.5981H95.6262C94.7826 28.2722 92.9702 30.3703 89.4737 30.3703H88.7953C84.3727 30.3703 82.0132 27.2426 82.0132 21.5659V18.2739C82.0132 12.6778 84.6264 9.63354 89.0489 9.63354H89.6816C93.3492 9.63354 94.9905 11.5258 95.6232 14.57ZM89.0856 20.0209C89.0856 22.4891 90.14 23.5189 92.6677 23.5189C95.1952 23.5189 96.2496 22.4891 96.2496 20.0209C96.2496 17.5526 95.1952 16.523 92.6677 16.523C90.14 16.523 89.0856 17.5526 89.0856 20.0209Z" fill="#A7A5A5"/>
<path fill-rule="evenodd" clip-rule="evenodd" d="M185.758 14.5701H185.673C185.041 11.5258 183.399 9.63354 179.731 9.63354H179.098C174.676 9.63354 172.063 12.6778 172.063 18.2739V21.5659C172.063 27.2425 174.422 30.3703 178.845 30.3703H179.524C183.02 30.3703 184.833 28.2722 185.676 25.5981H185.758V27.738C185.758 29.1378 186.813 30.2898 188.244 30.2898H190.731C192.165 30.2869 193.216 29.1348 193.216 27.735V12.2535C193.216 10.8538 192.165 9.6428 190.731 9.63981H188.244C186.813 9.63981 185.758 10.8508 185.758 12.2505V14.5701ZM182.717 23.5189C180.19 23.5189 179.135 22.4891 179.135 20.0209C179.135 17.5526 180.19 16.523 182.717 16.523C185.245 16.523 186.3 17.5526 186.3 20.0209C186.3 22.4891 185.245 23.5189 182.717 23.5189Z" fill="#A7A5A5"/>
<path d="M75.3788 6.2236C75.3788 4.82545 74.2778 3.66528 72.9015 3.66528H70.669C69.262 3.66528 68.0999 4.82545 68.0999 6.2236V9.62694H66.95C65.3913 9.62694 64.3369 10.7372 64.3369 12.0952V14.0782C64.3369 15.4362 65.3057 16.5465 67.1182 16.5465H68.0999L68.1326 21.5657C68.1326 27.2424 70.4921 30.3702 74.9147 30.3702H77.9992C79.6007 30.3702 80.7805 29.3504 80.7805 27.9558L80.7627 25.8798C80.7627 24.4853 79.5473 23.5064 77.9813 23.5064C75.6445 23.5064 75.4222 22.5779 75.3612 20.4801L75.3788 16.5465H77.9813C79.7938 16.5465 80.7626 15.4362 80.7626 14.0782V12.0952C80.7626 10.7372 79.7082 9.62694 78.1495 9.62694H75.3788V6.2236Z" fill="#A7A5A5"/>
<path d="M162.974 3.66528C164.35 3.66528 165.451 4.82545 165.451 6.22361V9.62695H168.221C169.781 9.62695 170.835 10.7372 170.835 12.0952V14.0782C170.835 15.4362 169.866 16.5465 168.053 16.5465H165.451L165.434 20.4801C165.495 22.5779 165.717 23.5064 168.053 23.5064C169.619 23.5064 170.835 24.4853 170.835 25.8798L170.853 27.956C170.853 29.3504 169.672 30.3702 168.071 30.3702H164.987C160.564 30.3702 158.205 27.2424 158.205 21.5657L158.172 16.5465H157.191C155.378 16.5465 154.409 15.4362 154.409 14.0782V12.0952C154.409 10.7372 155.463 9.62695 157.022 9.62695H158.172V6.22361C158.172 4.82545 159.334 3.66528 160.741 3.66528H162.974Z" fill="#A7A5A5"/>
<path d="M51.7811 20.5979C48.1237 19.7658 45.8621 18.287 45.8621 15.1441C45.8621 11.5239 48.7301 9.59253 53.575 9.59253L56.7868 9.5946H60.29C62.0995 9.5946 63.0669 10.7095 63.0669 12.0731V14.0152C63.0669 15.3789 62.0995 16.4937 60.29 16.4937L56.1377 16.4792C55.3323 16.4792 54.8952 16.7381 54.7442 17.3366C54.4394 18.5455 56.2063 18.9549 58.0073 19.3647C61.6397 20.1912 63.935 21.6757 63.935 24.8186C63.935 28.4387 61.067 30.3701 56.2219 30.3701L53.0101 30.3681H49.0146C47.205 30.3681 46.2377 29.2532 46.2377 27.8896V25.9475C46.2377 24.5838 47.205 23.4689 49.0146 23.4689L53.6592 23.4835C54.4647 23.4835 54.9018 23.2246 55.0527 22.6261C55.3576 21.4172 53.5821 21.0077 51.7811 20.5979Z" fill="#A7A5A5"/>
<path d="M141.9 20.5982C138.243 19.7661 135.981 18.2873 135.981 15.1443C135.981 11.5242 138.849 9.59277 143.694 9.59277L146.906 9.59485H150.409C152.218 9.59485 153.186 10.7097 153.186 12.0734V14.0155C153.186 15.3791 152.218 16.4941 150.409 16.4941L146.257 16.4794C145.452 16.4794 145.014 16.7383 144.863 17.3368C144.558 18.5457 146.325 18.9552 148.127 19.365C151.758 20.1915 154.054 21.6759 154.054 24.8188C154.054 28.4391 151.186 30.3704 146.341 30.3704L143.128 30.3683H139.133C137.324 30.3683 136.356 29.2534 136.356 27.8898V25.9477C136.356 24.584 137.324 23.4692 139.133 23.4692L143.779 23.4838C144.584 23.4838 145.02 23.2249 145.172 22.6263C145.476 21.4174 143.701 21.008 141.9 20.5982Z" fill="#A7A5A5"/>
</g>
<defs>
<clipPath id="clip0_177_31">
<rect width="194" height="31" fill="white"/>
</clipPath>
</defs>
</svg>
