<svg width="113" height="31" viewBox="0 0 113 31" fill="none" xmlns="http://www.w3.org/2000/svg">
<path fill-rule="evenodd" clip-rule="evenodd" d="M17.341 23.4751H12.4203C4.744 23.4751 10.3208 7.49274 16.7833 7.49274H24.5581C25.8046 7.49274 28.0026 7.71788 29.0852 4.69502L30.7582 0H20.0966C14.323 0 9.82871 1.99378 6.58107 5.33818C0.971449 11.0622 -0.931223 20.0021 0.413774 24.2791C1.69316 28.2344 5.17047 30.8392 10.616 30.9036L14.8479 30.9357H20.0638L21.3432 27.1733C22.2945 24.5042 20.1622 23.4751 17.341 23.4751ZM77.2426 16.8506L78.8498 11.7376H61.693C58.8391 11.7376 57.5596 12.5094 57.0676 14.1172L55.4602 19.2303H72.617C75.471 19.2303 76.7504 18.4585 77.2426 16.8506ZM52.9014 25.8548L51.2939 30.9678H68.4508C71.2721 30.9678 72.5842 30.196 73.0763 28.5882L74.6838 23.4751H57.5269C54.7057 23.4751 53.4262 24.2469 52.9014 25.8548ZM81.2446 5.14523L82.8524 0.0321573H65.6952C62.8413 0.0321573 61.5618 0.80394 61.0698 2.41183L59.4624 7.5249H76.6193C79.4408 7.5249 80.7197 6.75312 81.2446 5.14523ZM55.329 6.17428C54.6072 1.41494 52.0156 0.0321573 45.7171 0.0321573H34.2355L27.5433 19.2303H31.7751C34.3011 19.2303 35.5805 19.2625 36.9255 15.7251L39.7139 7.49274H43.9785C47.6198 7.49274 46.7997 11.9627 44.9626 16.3039C43.3224 20.1307 40.4684 23.5073 37.0238 23.5073H29.9053C27.0512 23.5073 25.7391 24.2791 25.2141 25.887L23.4427 31H28.6587L33.7762 30.9678C38.3033 30.9357 42.0102 30.6141 46.3404 26.7874C50.9331 22.7033 56.2475 12.2199 55.329 6.17428ZM113 0H103.06L93.7107 9.74377C92.6278 10.8693 91.5126 11.9948 90.4297 13.3133H90.3313L94.9895 0H86.8874L75.9631 30.9678H84.066L87.5429 21.2241L91.1513 18.2334L94.0058 27.0446C94.8912 29.778 95.8104 30.9678 97.7787 30.9678H103.979L97.6142 13.667L113 0Z" fill="#A7A5A5"/>
</svg>
