<svg width="156" height="31" viewBox="0 0 156 31" fill="none" xmlns="http://www.w3.org/2000/svg">
<path d="M14.6651 28.6154C22.7644 28.6154 29.3302 22.2096 29.3302 14.3077C29.3302 6.40577 22.7644 0 14.6651 0C6.56579 0 0 6.40577 0 14.3077C0 22.2096 6.56579 28.6154 14.6651 28.6154Z" fill="#A7A5A5"/>
<path d="M16.6206 8.10763H15.2763C12.771 8.10763 11.4878 9.35955 11.4878 11.148C11.4878 13.1749 12.4043 14.1288 14.2375 15.3807L15.7651 16.3942L11.3656 22.8326H8.06592L12.0377 17.1095C9.77685 15.4999 8.49365 13.9499 8.49365 11.3865C8.49365 8.10763 10.8156 5.90186 15.2763 5.90186H19.6758V22.8922H16.6206V8.10763Z" fill="white"/>
<path d="M39.4125 29.4501V24.9789H50.4724V29.4501H54.0776V22.0578H52V3.45776H39.1681L38.8625 12.3405C38.6792 17.4078 38.3126 20.3885 37.2738 22.0578H35.8684V29.4501H39.4125ZM42.2233 12.8174L42.4677 6.37892H48.2115V22.0578H40.879C41.5511 20.5674 42.04 17.8847 42.2233 12.8174ZM62.2656 9.06161C58.1105 9.06161 55.2386 11.9231 55.2386 17.1693C55.2386 22.3558 58.1105 25.277 62.2656 25.277C66.4207 25.277 69.3537 22.4155 69.3537 17.1693C69.3537 11.9828 66.4207 9.06161 62.2656 9.06161ZM62.2656 22.3558C60.188 22.3558 59.1493 20.7462 59.1493 17.1693C59.1493 13.5328 60.188 11.9828 62.2656 11.9828C64.3431 11.9828 65.443 13.5328 65.443 17.1693C65.443 20.8058 64.4042 22.3558 62.2656 22.3558ZM78.7638 25.277C80.5359 25.277 81.758 24.9789 82.6745 24.3231V21.3424C81.6968 21.9981 80.597 22.4155 79.0082 22.4155C76.3196 22.4155 75.2198 20.3885 75.2198 17.1693C75.2198 13.7712 76.5641 12.0424 79.0693 12.0424C80.5359 12.0424 81.9413 12.5193 82.7356 12.9962V9.89622C81.9413 9.47892 80.5359 9.18084 78.6416 9.18084C73.8144 9.18084 71.3091 12.5789 71.3091 17.2885C71.248 22.4155 73.6921 25.277 78.7638 25.277ZM96.9119 12.2808V9.35969H84.2632V12.2808H88.7239V24.9789H92.5124V12.2808H96.9119ZM110.11 14.3674C110.11 10.6116 108.155 9.18084 104.122 9.18084C101.617 9.18084 99.6616 9.95584 98.5006 10.6116V13.7116C99.5394 12.9962 101.739 12.1616 103.694 12.1616C105.528 12.1616 106.322 12.7578 106.322 14.427V15.3212H105.711C99.906 15.3212 97.3396 17.1693 97.3396 20.3289C97.3396 23.4885 99.295 25.277 102.228 25.277C104.428 25.277 105.405 24.5616 106.139 23.8462H106.322C106.383 24.2635 106.505 24.8001 106.628 25.0981H110.294C110.172 23.8462 110.11 22.5347 110.11 21.2828V14.3674ZM106.383 21.2828C105.894 21.9385 105.039 22.5347 103.694 22.5347C102.106 22.5347 101.311 21.5808 101.311 20.2097C101.311 18.3616 102.595 17.7058 105.833 17.7058H106.383V21.2828ZM119.459 24.9789C123.187 24.9789 125.448 23.4289 125.448 20.4481C125.448 18.4212 124.165 17.2289 122.026 16.8712C123.737 16.3943 124.837 15.202 124.837 13.3539C124.837 10.6712 123.004 9.35969 119.521 9.35969H113.166V24.9789C113.166 24.9789 119.459 24.9789 119.459 24.9789ZM118.971 12.1616C120.315 12.1616 121.109 12.6981 121.109 13.8905C121.109 14.9635 120.315 15.6193 118.848 15.6193H116.954V12.1616H118.971ZM119.093 18.3616C120.682 18.3616 121.537 18.8981 121.537 20.2097C121.537 21.6405 120.559 22.177 119.093 22.177H117.015V18.3616H119.093ZM137.363 24.9789H141.64L135.591 16.5731L140.907 9.35969H137.119L131.803 16.5731V9.35969H128.014V24.9789H131.803V17.2885L137.363 24.9789ZM154.534 14.3674C154.534 10.6116 152.578 9.18084 148.545 9.18084C146.04 9.18084 144.085 9.95584 142.924 10.6116V13.7116C143.962 12.9962 146.162 12.1616 148.118 12.1616C149.951 12.1616 150.745 12.7578 150.745 14.427V15.3212H150.134C144.329 15.3212 141.763 17.1693 141.763 20.3289C141.763 23.4885 143.718 25.277 146.651 25.277C148.851 25.277 149.828 24.5616 150.562 23.8462H150.745C150.806 24.2635 150.928 24.8001 151.051 25.0981H154.717C154.595 23.8462 154.534 22.5347 154.534 21.2828V14.3674ZM150.745 21.2828C150.256 21.9385 149.401 22.5347 148.056 22.5347C146.468 22.5347 145.673 21.5808 145.673 20.2097C145.673 18.3616 146.957 17.7058 150.195 17.7058H150.745V21.2828Z" fill="#A7A5A5"/>
<path d="M39.4125 29.4501V24.9789H50.4724V29.4501H54.0776V22.0578H52V3.45776H39.1681L38.8625 12.3405C38.6792 17.4078 38.3126 20.3885 37.2738 22.0578H35.8684V29.4501H39.4125ZM42.2233 12.8174L42.4677 6.37892H48.2115V22.0578H40.879C41.5511 20.5674 42.04 17.8847 42.2233 12.8174ZM62.2656 9.06161C58.1105 9.06161 55.2386 11.9231 55.2386 17.1693C55.2386 22.3558 58.1105 25.277 62.2656 25.277C66.4207 25.277 69.3537 22.4155 69.3537 17.1693C69.3537 11.9828 66.4207 9.06161 62.2656 9.06161ZM62.2656 22.3558C60.188 22.3558 59.1493 20.7462 59.1493 17.1693C59.1493 13.5328 60.188 11.9828 62.2656 11.9828C64.3431 11.9828 65.443 13.5328 65.443 17.1693C65.443 20.8058 64.4042 22.3558 62.2656 22.3558ZM78.7638 25.277C80.5359 25.277 81.758 24.9789 82.6745 24.3231V21.3424C81.6968 21.9981 80.597 22.4155 79.0082 22.4155C76.3196 22.4155 75.2198 20.3885 75.2198 17.1693C75.2198 13.7712 76.5641 12.0424 79.0693 12.0424C80.5359 12.0424 81.9413 12.5193 82.7356 12.9962V9.89622C81.9413 9.47892 80.5359 9.18084 78.6416 9.18084C73.8144 9.18084 71.3091 12.5789 71.3091 17.2885C71.248 22.4155 73.6921 25.277 78.7638 25.277ZM96.9119 12.2808V9.35969H84.2632V12.2808H88.7239V24.9789H92.5124V12.2808H96.9119ZM110.11 14.3674C110.11 10.6116 108.155 9.18084 104.122 9.18084C101.617 9.18084 99.6616 9.95584 98.5006 10.6116V13.7116C99.5394 12.9962 101.739 12.1616 103.694 12.1616C105.528 12.1616 106.322 12.7578 106.322 14.427V15.3212H105.711C99.906 15.3212 97.3396 17.1693 97.3396 20.3289C97.3396 23.4885 99.295 25.277 102.228 25.277C104.428 25.277 105.405 24.5616 106.139 23.8462H106.322C106.383 24.2635 106.505 24.8001 106.628 25.0981H110.294C110.172 23.8462 110.11 22.5347 110.11 21.2828V14.3674ZM106.383 21.2828C105.894 21.9385 105.039 22.5347 103.694 22.5347C102.106 22.5347 101.311 21.5808 101.311 20.2097C101.311 18.3616 102.595 17.7058 105.833 17.7058H106.383V21.2828ZM119.459 24.9789C123.187 24.9789 125.448 23.4289 125.448 20.4481C125.448 18.4212 124.165 17.2289 122.026 16.8712C123.737 16.3943 124.837 15.202 124.837 13.3539C124.837 10.6712 123.004 9.35969 119.521 9.35969H113.166V24.9789C113.166 24.9789 119.459 24.9789 119.459 24.9789ZM118.971 12.1616C120.315 12.1616 121.109 12.6981 121.109 13.8905C121.109 14.9635 120.315 15.6193 118.848 15.6193H116.954V12.1616H118.971ZM119.093 18.3616C120.682 18.3616 121.537 18.8981 121.537 20.2097C121.537 21.6405 120.559 22.177 119.093 22.177H117.015V18.3616H119.093ZM137.363 24.9789H141.64L135.591 16.5731L140.907 9.35969H137.119L131.803 16.5731V9.35969H128.014V24.9789H131.803V17.2885L137.363 24.9789ZM154.534 14.3674C154.534 10.6116 152.578 9.18084 148.545 9.18084C146.04 9.18084 144.085 9.95584 142.924 10.6116V13.7116C143.962 12.9962 146.162 12.1616 148.118 12.1616C149.951 12.1616 150.745 12.7578 150.745 14.427V15.3212H150.134C144.329 15.3212 141.763 17.1693 141.763 20.3289C141.763 23.4885 143.718 25.277 146.651 25.277C148.851 25.277 149.828 24.5616 150.562 23.8462H150.745C150.806 24.2635 150.928 24.8001 151.051 25.0981H154.717C154.595 23.8462 154.534 22.5347 154.534 21.2828V14.3674ZM150.745 21.2828C150.256 21.9385 149.401 22.5347 148.056 22.5347C146.468 22.5347 145.673 21.5808 145.673 20.2097C145.673 18.3616 146.957 17.7058 150.195 17.7058H150.745V21.2828Z" fill="#A7A5A5"/>
</svg>
