<?xml version="1.0"?>
<svg width="640" height="480" xmlns="http://www.w3.org/2000/svg" xmlns:svg="http://www.w3.org/2000/svg">
 <!-- Created with SVG-edit - https://github.com/SVG-Edit/svgedit-->
 <g class="layer">
  <title>Layer 1</title>
  <path d="m49.5,140.5c0.714333,-0.361664 1.432869,-0.729385 2.200001,-1.321335c0.620365,-0.478699 1.165581,-1.072266 2.000332,-1.657333c0.810509,-0.568069 1.569515,-0.906967 2.442501,-1.342667c0.666378,-0.332581 1.374352,-0.686447 2.109001,-1.026001c1.076275,-0.497452 1.757988,-0.78447 2.748165,-1.131836c0.648815,-0.227615 1.664391,-0.529282 2.386665,-0.719498c0.757713,-0.199554 1.556152,-0.388626 2.400002,-0.515991c1.32962,-0.200699 2.265823,-0.232452 2.738663,-0.249344c0.949074,-0.033905 1.890671,-0.035324 2.808006,-0.035995c0.88533,-0.000641 1.762665,0 2.663994,0c0.469673,0 2.00267,-0.000931 2.566833,0.000168c1.198341,0.00235 1.822548,0.008057 2.456673,0.02066c0.639221,0.012711 1.913696,0.048019 3.145828,0.145844c0.591019,0.046921 1.719833,0.184967 2.261337,0.269333c1.052391,0.163956 1.563545,0.265701 3.071999,0.563995c0.500183,0.098907 1.498772,0.302307 2.5,0.479172c0.499413,0.088226 1.498108,0.252655 2.5,0.354156c0.998413,0.101135 2.000336,0.147537 2.5,0.1875c1.000755,0.080048 1.51033,0.096909 3.000168,0.422165c0.505272,0.110306 1.512184,0.424026 2.020668,0.598679c1.039871,0.357178 1.561958,0.567993 3.2005,1.158325c0.561798,0.202408 1.131226,0.400314 2.278664,0.800003c0.574615,0.20015 1.150269,0.391815 2.833336,1c0.546127,0.197342 1.082558,0.39679 2.130661,0.800003c0.515778,0.198425 1.531685,0.599533 2.034668,0.800003c1.502045,0.598633 2.00193,0.801865 3.012001,1.199997c0.509796,0.200943 1.545738,0.60202 2.074669,0.800003c1.079781,0.40416 2.198441,0.800613 2.767334,1c0.572441,0.200623 1.722221,0.599365 2.294662,0.799988c0.568893,0.199387 2.231667,0.798676 2.767334,1c0.528664,0.1987 1.564873,0.59906 2.074669,0.800003c1.010086,0.398132 2.010147,0.8013 3.009338,1.198669c0.496567,0.197479 1.479507,0.58313 1.965332,0.765335c0.948761,0.355804 2.314377,0.81575 2.751999,0.953339c0.858093,0.269791 1.716766,0.524017 2.567993,0.85199c0.890945,0.343277 1.802505,0.795197 2.268677,1.040497c0.95253,0.501221 1.421463,0.776459 2.363327,1.30751c0.916809,0.516922 1.796753,0.998398 2.637329,1.446671c0.799454,0.426346 1.193085,0.617065 2.279999,1.235992c0.686569,0.390961 1.647858,0.996902 2.262177,1.399994c0.907501,0.595459 1.511932,0.988953 2.093826,1.410675c0.866974,0.628326 1.658813,1.342606 2.125336,1.873337c0.464462,0.528397 1.062775,1.377548 1.685333,2.149323c0.583405,0.723221 1.197815,1.358139 1.600006,1.765335c0.7957,0.805588 1.399994,1.401337 2,2.001343c0.799988,0.799988 1.40004,1.399948 1.799988,1.799988c0.799927,0.800095 1.430847,1.377335 1.942841,2.057175c0.694885,0.922684 0.906265,1.499222 1.282501,2.3535c0.259888,0.590134 0.851257,1.79454 1.210663,2.389328c0.365845,0.605423 0.760834,1.203018 1.563995,2.398666c0.397781,0.592163 0.772812,1.186234 1.600006,2.234665c0.388809,0.492813 1.017197,1.170197 1.457169,1.619339c0.956482,0.97641 1.495255,1.504929 2.06366,2.047333c0.578888,0.552399 1.471741,1.342743 2.080505,1.815994c0.602127,0.468094 1.235474,0.908173 1.884003,1.368011c1.037308,0.735489 1.767471,1.268478 2.139999,1.541321c0.749588,0.548981 1.48642,1.096619 2.553329,1.853333c0.666046,0.472397 1.322952,0.919022 1.973999,1.374008c1.016541,0.710403 1.36969,0.96727 2.100006,1.5c0.748383,0.545898 1.493668,1.096039 1.863327,1.363327c1.059814,0.766296 1.722153,1.236969 2.384003,1.642334c0.644043,0.39444 2.017471,1.031631 2.757172,1.289001c0.759705,0.264328 1.549362,0.499359 1.944168,0.636673c1.205124,0.419159 1.998657,0.768661 2.79866,1.115997c0.800003,0.347336 1.996368,0.843857 2.79866,1.11467c0.395111,0.133362 1.180786,0.363495 2.31601,0.68399c1.064087,0.300415 1.729263,0.497894 2.364502,0.70134c0.921112,0.294998 1.820831,0.600006 2.720825,0.899994c0.900009,0.300003 1.797974,0.606216 2.695496,0.895508c0.582397,0.187714 1.409317,0.477158 2.420502,0.619171c0.903519,0.126907 1.850677,0.085327 2.636673,0.085327c0.822006,0 1.880661,0 2.822006,0c0.677994,0 1.646667,0 2.450653,0c0.822006,0 1.853012,0 2.733002,0c1.02034,0 1.794342,0 2.703339,0c0.800003,0 1.759506,0 2.552994,0c1.016006,0 1.971008,0 2.885345,0c0.899994,0 1.658234,-0.039536 2.552658,0.004501c0.866074,0.042633 1.624619,0.615692 2.548676,0.910172c0.92334,0.29425 1.777832,0.085327 2.684326,0.085327c0.830338,0 1.761673,0 2.635162,0c0.8685,0 1.83844,0.106796 2.700668,-0.000168c0.898865,-0.111511 1.456833,-0.855774 2.299332,-0.999832c0.866592,-0.148178 1.779175,0 2.679169,0c0.900009,0 1.8004,0.02536 2.600006,0c0.901352,-0.028595 1.676926,-0.611877 2.521332,-0.878662c0.825623,-0.260849 1.761154,-0.471664 2.43132,-0.768677c0.869934,-0.385559 1.65213,-0.330383 2.648682,-0.353989c0.835144,-0.019775 1.768341,-0.153015 2.551331,-0.351334c0.825378,-0.209061 1.876404,-0.513214 2.590179,-0.590179c0.849365,-0.091583 1.861542,-0.00264 2.657166,-0.093155c1.010498,-0.11496 1.776581,-0.544891 2.799988,-0.797333c0.787018,-0.194122 1.600006,-0.166 2.604492,-0.166672c0.6315,-0.000412 1.817017,0 2.6315,0c0.574677,0 1.764008,0 2.664001,0c0.600006,0 1.5,0 2.698669,0c0.590668,0 1.444183,0 2.718658,0c0.703522,0 1.452026,0 2.650665,0c0.682678,0 1.381348,-0.003586 2.698669,0c0.828003,0.002258 1.588623,0.002335 2.666687,0.166672c0.639343,0.097458 1.324738,0.275345 2.418488,0.480667c1.078552,0.202469 1.761749,0.286774 2.727325,0.331833c0.615875,0.028732 1.821014,0.020828 2.425354,0.020828c0.931488,0 1.580841,-0.008148 2.979492,0.001328c0.741364,0.00502 1.492523,0.01207 2.231995,0.084c1.066162,0.103699 2.051514,0.338593 2.67334,0.525345c1.217987,0.365799 1.811798,0.582138 2.689819,0.889328c0.837921,0.293167 1.840302,0.689621 2.5,1c1.028564,0.483932 1.598328,0.837234 2.363678,1.142838c0.886353,0.353897 1.83429,0.499588 2.678009,0.877991c0.588257,0.263824 1.579163,0.779175 2.179169,1.079178c1,0.5 1.799988,0.899994 2.399994,1.199997c1,0.5 1.600006,0.800003 2.600006,1.300003c0.599976,0.299988 1.399994,0.699997 2.399994,1.199997c0.600006,0.300003 1.591156,0.81897 2.199982,1.089325c0.789307,0.350494 1.806122,0.518951 2.600006,0.663345c1.008881,0.183487 1.784698,0.525101 2.578674,1.047165c0.6651,0.437332 1.520142,0.743042 2.368652,0.952835c0.918213,0.22702 1.408936,0.795334 2.173523,1.447327c0.761108,0.649033 1.622711,0.832687 2.236328,1.600006c0.482147,0.602905 0.904541,1.379135 1.632172,1.874664c0.665802,0.453415 1.257996,1.078003 1.694672,1.741333l0.863312,0.288498" fill="none" id="svg_2" stroke="#000000" stroke-width="5"/>
 </g>
</svg>